<svg width="23" height="23" viewBox="0 0 23 23" fill="none" xmlns="http://www.w3.org/2000/svg">
<g clip-path="url(#clip0_109_51)">
<path d="M6.33386 9.45288C7.10689 10.8543 7.99784 12.1993 9.15458 13.4257C10.3151 14.6597 11.7582 15.7827 13.6262 16.7421C13.7647 16.8098 13.8957 16.8098 14.0136 16.7628C14.1914 16.695 14.373 16.5464 14.5508 16.3677C14.6893 16.2285 14.8615 16.0066 15.0412 15.7639C15.76 14.814 16.649 13.6345 17.905 14.2252C17.9331 14.2384 17.9536 14.2534 17.9817 14.2647L22.1707 16.6856C22.1838 16.6932 22.1988 16.7063 22.21 16.7139C22.7622 17.0957 22.9905 17.6845 22.9961 18.3523C22.9961 19.0314 22.7472 19.7951 22.3822 20.4403C21.8993 21.2924 21.188 21.8567 20.3682 22.2292C19.5877 22.5904 18.7192 22.7841 17.8844 22.9083C16.5742 23.102 15.3463 22.9779 14.0904 22.5904C12.8625 22.2085 11.6253 21.5783 10.2739 20.7394L10.1747 20.6754C9.55513 20.286 8.88505 19.8703 8.22806 19.3794C5.82474 17.5547 3.37463 14.9193 1.77803 12.0187C0.439733 9.58456 -0.290247 6.95668 0.108434 4.45296C0.3293 3.07977 0.915156 1.83073 1.93713 1.00682C2.82808 0.284483 4.02787 -0.110545 5.58142 0.0286552C5.75923 0.0418228 5.91833 0.145282 6.00256 0.299531L8.68851 4.86304C9.08158 5.37469 9.13024 5.88259 8.91499 6.39048C8.73718 6.8062 8.3778 7.18994 7.88741 7.54734C7.74328 7.67149 7.57108 7.79753 7.38952 7.9292C6.78869 8.3675 6.1055 8.87351 6.33947 9.46793L6.33386 9.45288Z" fill="white"/>
</g>
<defs>
<clipPath id="clip0_109_51">
<rect width="23" height="23" fill="white"/>
</clipPath>
</defs>
</svg>
